<?xml version="1.0" encoding="UTF-8"?>
<!DOCTYPE svg PUBLIC "-//W3C//DTD SVG 1.1//EN" "http://www.w3.org/Graphics/SVG/1.1/DTD/svg11.dtd">
<svg xmlns="http://www.w3.org/2000/svg" version="1.1" width="40px" height="40px" style="shape-rendering:geometricPrecision; text-rendering:geometricPrecision; image-rendering:optimizeQuality; fill-rule:evenodd; clip-rule:evenodd" xmlns:xlink="http://www.w3.org/1999/xlink">
<g><path style="opacity:0.833" fill="#f3715a" d="M 20.5,-0.5 C 21.8333,-0.5 23.1667,-0.5 24.5,-0.5C 22.0727,2.70162 21.906,6.03496 24,9.5C 26,12.8333 28,16.1667 30,19.5C 30.1858,17.0995 30.6858,14.7662 31.5,12.5C 34.2905,15.3617 35.6239,18.8617 35.5,23C 35.7016,30.443 32.7016,35.943 26.5,39.5C 25.1667,39.5 23.8333,39.5 22.5,39.5C 26.7242,37.0407 28.2242,33.374 27,28.5C 25.5599,34.9607 24.5599,34.9607 24,28.5C 21.5651,25.0665 19.5651,21.3998 18,17.5C 15.2076,20.2048 13.8743,23.5382 14,27.5C 13.3333,26.1667 12.6667,26.1667 12,27.5C 10.7469,32.3379 11.9136,36.3379 15.5,39.5C 15.1667,39.5 14.8333,39.5 14.5,39.5C 3.58649,32.9177 1.08649,23.9177 7,12.5C 10.6482,7.35302 15.1482,3.01969 20.5,-0.5 Z"/></g>
<g><path style="opacity:1" fill="#fecc5b" d="M 22.5,39.5 C 20.1667,39.5 17.8333,39.5 15.5,39.5C 11.9136,36.3379 10.7469,32.3379 12,27.5C 12.6667,26.1667 13.3333,26.1667 14,27.5C 13.8743,23.5382 15.2076,20.2048 18,17.5C 19.5651,21.3998 21.5651,25.0665 24,28.5C 24.5599,34.9607 25.5599,34.9607 27,28.5C 28.2242,33.374 26.7242,37.0407 22.5,39.5 Z"/></g>
</svg>
